<svg width="192" height="192" viewBox="0 0 192 192" version="1.1" xmlns="http://www.w3.org/2000/svg" xmlns:xlink="http://www.w3.org/1999/xlink">
<title>Logo</title>
<desc>Created using Figma</desc>
<g id="Canvas" transform="translate(70 156)">
<clipPath id="clip-0" clip-rule="evenodd">
<path d="M -70 -156L 122 -156L 122 36L -70 36L -70 -156Z" fill="#FFFFFF"/>
</clipPath>
<g id="Logo" clip-path="url(#clip-0)">
<g id="Rectangle">
<use xlink:href="#path0_fill" transform="translate(-50 -136)" fill="#000080"/>
<use xlink:href="#path0_fill" transform="translate(-50 -136)" fill="url(#paint1_linear)"/>
</g>
<g id="Group" filter="url(#filter0_d)">
<g id="Vector">
<use xlink:href="#path1_stroke" transform="translate(-25.5466 -105.958)" fill="#FFBA04"/>
</g>
<g id="Ellipse">
<use xlink:href="#path2_fill" transform="translate(-34 -21.0776)" fill="#FFBA04"/>
</g>
<g id="Union">
<use xlink:href="#path3_fill" transform="matrix(-0.26074 -0.965409 0.973237 -0.229804 63.3024 -93.4211)" fill="#FFBA04"/>
<use xlink:href="#path4_stroke" transform="matrix(-0.26074 -0.965409 0.973237 -0.229804 63.3024 -93.4211)" fill="#FFBA04"/>
</g>
</g>
</g>
</g>
<defs>
<filter id="filter0_d" filterUnits="userSpaceOnUse" x="-38" y="-124" width="132" height="132" color-interpolation-filters="sRGB">
<feFlood flood-opacity="0" result="BackgroundImageFix"/>
<feColorMatrix in="SourceAlpha" type="matrix" values="0 0 0 0 0 0 0 0 0 0 0 0 0 0 0 0 0 0 255 0"/>
<feOffset dx="0" dy="4"/>
<feGaussianBlur stdDeviation="2"/>
<feColorMatrix type="matrix" values="0 0 0 0 0 0 0 0 0 0 0 0 0 0 0 0 0 0 0.25 0"/>
<feBlend mode="normal" in2="BackgroundImageFix" result="effect1_dropShadow"/>
<feBlend mode="normal" in="SourceGraphic" in2="effect1_dropShadow" result="shape"/>
</filter>
<linearGradient id="paint1_linear" x1="0" y1="0" x2="1" y2="0" gradientUnits="userSpaceOnUse" gradientTransform="matrix(-152 152 -152 -152 228 76)">
<stop offset="0.365741" stop-color="#FFFFFF" stop-opacity="0"/>
<stop offset="0.944982" stop-color="#FF6A02"/>
</linearGradient>
<path id="path0_fill" d="M 0 23C 0 10.2975 10.2975 0 23 0L 129 0C 141.703 0 152 10.2975 152 23L 152 129C 152 141.703 141.703 152 129 152L 23 152C 10.2975 152 0 141.703 0 129L 0 23Z"/>
<path id="path1_stroke" d="M 80.777 83.8714L 86.8431 89.087L 80.777 83.8714ZM 7.29334 101.65C 8.41482 99.1549 9.45994 96.4688 10.3006 93.9711L -4.86792 88.8803C -5.58454 91.0224 -6.3397 92.9658 -7.29334 95.0748L 7.29334 101.65ZM 14.0561 78.1113C 14.8411 72.7603 15.204 67.2561 15.2785 62.2081L -0.719891 61.9802C -0.783423 66.6215 -1.06914 71.0675 -1.77162 75.7693L 14.0561 78.1113ZM 14.8156 46.6851C 14.4673 41.2833 14.0129 36.2848 13.724 31.823L -2.2424 32.859C -1.93882 37.5273 -1.48474 42.5214 -1.15141 47.7126L 14.8156 46.6851ZM 13.8059 18.7309C 14.1135 16.6388 14.2637 16.0243 14.9672 15.1832L 1.93957 5.89447C 0.0269129 8.72265 -1.41282 12.7745 -1.99107 16.1901L 13.8059 18.7309ZM 14.9672 15.1832C 14.6227 15.6664 13.8767 16.4746 12.6028 16.9932C 11.3008 17.5233 10.1005 17.4849 9.31305 17.3187C 8.13988 17.0711 7.97318 16.5824 8.9866 17.5124L 19.8046 5.7238C 18.2532 4.30019 15.7854 2.33228 12.6173 1.66361C 11.0635 1.40821 8.23987 1.61028 6.57013 2.17411C 5.05426 2.89255 2.92644 4.62495 1.93957 5.89447L 14.9672 15.1832ZM 16.4899 27.1029C 18.802 30.5052 21.2745 34.3835 23.9282 38.6146L 37.4828 30.1132C 34.7968 25.8309 32.1661 21.7074 29.7254 18.1127L 16.4899 27.1029ZM 31.35 50.4983C 33.8475 54.4767 36.4365 58.5443 39.0259 62.4518L 52.3626 53.6125C 49.8546 49.829 47.3723 45.928 44.9012 41.9916L 31.35 50.4983ZM 47.3388 74.3176C 50.554 78.59 53.9944 82.6912 57.2075 85.8529L 68.4046 74.4237C 65.7432 71.83 63.0888 68.6461 60.128 64.7032L 47.3388 74.3176ZM 74.6516 94.9164C 79.5583 94.952 83.7316 92.7059 86.8431 89.087L 74.7109 78.6558C 74.5449 78.8488 74.4275 78.9528 74.3686 79C 74.3118 79.0455 74.307 79.0403 74.3563 79.016C 74.4077 78.9908 74.4843 78.9613 74.5763 78.9406C 74.6673 78.9201 74.736 78.9166 74.7676 78.9168L 74.6516 94.9164ZM 86.8431 89.087C 89.1035 86.3906 91.1092 82.7622 92.261 79.5887L 77.1799 74.2443C 76.5035 76.2298 75.9467 77.2858 74.7109 78.6558L 86.8431 89.087ZM 94.6658 60.8303C 94.5097 55.3251 93.8477 49.49 93.1489 44.0219L 77.278 46.0505C 77.964 51.4163 78.5496 56.4538 78.6716 61.2615L 94.6658 60.8303ZM 91.314 28.4147C 90.8556 22.8115 90.8018 18.6176 91.762 14.9999L 76.2344 11.1408C 74.9201 16.6753 74.8686 23.4569 75.3658 29.7012L 91.314 28.4147ZM 96.7238 8.9335C 98.3037 8.33043 99.7123 8.07491 102.234 7.99346L 101.587 -7.99346C 97.9206 -7.82446 94.093 -7.10557 91.2581 -6.10399L 96.7238 8.9335Z"/>
<path id="path2_fill" d="M 22.5424 10.5388C 22.5424 16.3592 17.4961 21.0776 11.2712 21.0776C 5.04629 21.0776 0 16.3592 0 10.5388C 0 4.71839 5.04629 0 11.2712 0C 17.4961 0 22.5424 4.71839 22.5424 10.5388Z"/>
<path id="path3_fill" fill-rule="evenodd" d="M 11.9899 11.6609L 21.9797 11.6609L 21.9797 10.6609L 11.9899 10.6609L 11.9899 0L 10.9899 1.78075e-06L 10.9899 10.6609L 0 10.6609L 9.76193e-07 11.6609L 10.9899 11.6609L 10.9899 23.3218L 11.9899 23.3218L 11.9899 11.6609Z"/>
<path id="path4_stroke" d="M 21.9797 11.6609L 21.9798 16.6609L 26.9798 16.6609L 26.9797 11.6609L 21.9797 11.6609ZM 11.9899 11.6609L 11.9899 6.66088L 6.98987 6.66088L 6.98987 11.6609L 11.9899 11.6609ZM 21.9797 10.6609L 26.9797 10.6609L 26.9797 5.66088L 21.9797 5.66088L 21.9797 10.6609ZM 11.9899 10.6609L 6.98987 10.6609L 6.98987 15.6609L 11.9899 15.6609L 11.9899 10.6609ZM 11.9899 0L 16.9899 1.11726e-06L 16.9899 -5.00001L 11.9899 -5L 11.9899 0ZM 10.9899 1.78075e-06L 10.9899 -5L 5.98987 -4.99999L 5.98987 6.63495e-07L 10.9899 1.78075e-06ZM 10.9899 10.6609L 10.9899 15.6609L 15.9899 15.6609L 15.9899 10.6609L 10.9899 10.6609ZM 0 10.6609L 1.22579e-06 5.66088L -5 5.66088L -5 10.6609L 0 10.6609ZM 9.76193e-07 11.6609L -5 11.6609L -4.99999 16.6609L -2.49601e-07 16.6609L 9.76193e-07 11.6609ZM 10.9899 11.6609L 15.9899 11.6609L 15.9899 6.66089L 10.9899 6.66088L 10.9899 11.6609ZM 10.9899 23.3218L 5.98987 23.3218L 5.98987 28.3217L 10.9898 28.3218L 10.9899 23.3218ZM 11.9899 23.3218L 11.9898 28.3218L 16.9899 28.3218L 16.9899 23.3218L 11.9899 23.3218ZM 21.9797 6.66088L 11.9899 6.66088L 11.9899 16.6609L 21.9798 16.6609L 21.9797 6.66088ZM 16.9797 10.6609L 16.9797 11.6609L 26.9797 11.6609L 26.9797 10.6609L 16.9797 10.6609ZM 11.9899 15.6609L 21.9797 15.6609L 21.9797 5.66088L 11.9899 5.66088L 11.9899 15.6609ZM 6.98987 -1.11726e-06L 6.98987 10.6609L 16.9899 10.6609L 16.9899 1.11726e-06L 6.98987 -1.11726e-06ZM 10.9899 5L 11.9899 5L 11.9899 -5L 10.9899 -5L 10.9899 5ZM 15.9899 10.6609L 15.9899 2.89801e-06L 5.98987 6.63495e-07L 5.98987 10.6609L 15.9899 10.6609ZM -1.22579e-06 15.6609L 10.9899 15.6609L 10.9899 5.66088L 1.22579e-06 5.66088L -1.22579e-06 15.6609ZM 5 11.6609L 5 10.6609L -5 10.6609L -5 11.6609L 5 11.6609ZM 10.9899 6.66088L 2.20199e-06 6.66088L -2.49601e-07 16.6609L 10.9899 16.6609L 10.9899 6.66088ZM 15.9899 23.3218L 15.9899 11.6609L 5.98987 11.6609L 5.98987 23.3218L 15.9899 23.3218ZM 11.9899 18.3218L 10.9899 18.3218L 10.9898 28.3218L 11.9898 28.3218L 11.9899 18.3218ZM 6.98987 11.6609L 6.98987 23.3218L 16.9899 23.3218L 16.9899 11.6609L 6.98987 11.6609Z"/>
</defs>
</svg>
